# AST/ASF file generated using VICON BodyLanguage
# -----------------------------------------------
:version 1.10
:name VICON
:units
  mass 1.0
  length 0.45
  angle deg
:documentation
   .ast/.asf automatically generated from VICON data using
   VICON BodyBuilder and BodyLanguage model FoxedUp or BRILLIANT.MOD
:root
   order TX TY TZ RX RY RZ
   axis XYZ
   position 0 0 0  
   orientation 0 0 0 
:bonedata
  begin
     id 1 
     name lhipjoint
     direction 0.573633 -0.743009 0.344793 
     length 2.46257 
     axis 0 0 0  XYZ
  end
  begin
     id 2 
     name lfemur
     direction 0.34202 -0.939693 0  
     length 7.3842  
     axis 0 0 20  XYZ
    dof rx ry rz
    limits (-160.0 20.0)
           (-70.0 70.0)
           (-60.0 70.0)
  end
  begin
     id 3 
     name ltibia
     direction 0.34202 -0.939693 0   
     length 7.50407   
     axis 0 0 20   XYZ
    dof rx
    limits (-10.0 170.0)
  end
  begin
     id 4 
     name lfoot
     direction 0.110749 -0.304281 0.946123   
     length 1.95925   
     axis -90 7.62852e-016 20   XYZ
    dof rx rz
    limits (-45.0 90.0)
           (-70.0 20.0)
  end
  begin
     id 5 
     name ltoes
     direction 1.53554e-011 -4.21843e-011 1   
     length 0.978318   
     axis -90 7.62852e-016 20   XYZ
    dof rx
    limits (-90.0 20.0)
  end
  begin
     id 6 
     name rhipjoint
     direction -0.488109 -0.791693 0.367385   
     length 2.31113  
     axis 0 0 0  XYZ 
  end
  begin
     id 7 
     name rfemur
     direction -0.34202 -0.939693 0   
     length 7.40965   
     axis 0 0 -20   XYZ
    dof rx ry rz
    limits (-160.0 20.0)
           (-70.0 70.0)
           (-70.0 60.0)
  end
  begin
     id 8 
     name rtibia
     direction -0.34202 -0.939693 0   
     length 7.55548   
     axis 0 0 -20   XYZ
    dof rx
    limits (-10.0 170.0)
 end
 begin
     id 9 
     name rfoot
     direction -0.127594 -0.350561 0.927808   
     length 2.07199  
     axis -90 -7.62852e-016 -20   XYZ
    dof rx rz
    limits (-45.0 90.0)
           (-20.0 70.0)
  end
  begin
     id 10 
     name rtoes
     direction -1.53542e-011 -4.21909e-011 1   
     length 1.02667   
     axis -90 -7.62852e-016 -20   XYZ
    dof rx
    limits (-90.0 20.0)
  end
  begin
     id 11 
     name lowerback
     direction -0.0103342 0.997298 -0.0727278   
     length 2.02836   
     axis 0 0 0   XYZ
    dof rx ry rz
    limits (-20.0 45.0)
           (-30.0 30.0)
           (-30.0 30.0)
  end
  begin
     id 12 
     name upperback
     direction 0.0171146 0.999786 -0.011606   
     length 2.03179   
     axis 0 0 0   XYZ
    dof rx ry rz
    limits (-20.0 45.0)
           (-30.0 30.0)
           (-30.0 30.0)
  end
  begin
     id 13 
     name thorax
     direction 0.0216927 0.999513 0.0224343   
     length 2.03882   
     axis 0 0 0   XYZ
    dof rx ry rz
    limits (-20.0 45.0)
           (-30.0 30.0)
           (-30.0 30.0)
  end
  begin
     id 14 
     name lowerneck
     direction 0.000989287 0.993907 0.110221   
     length 1.75428   
     axis 0 0 0   XYZ
    dof rx ry rz
    limits (-20.0 45.0)
           (-30.0 30.0)
           (-30.0 30.0)
  end
  begin
     id 15 
     name upperneck
     direction -0.0172474 0.994813 -0.100253   
     length 1.77058   
     axis 0 0 0   XYZ
    dof rx ry rz
    limits (-20.0 45.0)
           (-30.0 30.0)
           (-30.0 30.0)
  end
  begin
     id 16
     name head
     direction -0.00486455 0.99894 -0.0457663  
     length 1.77427  
     axis 0 0 0   XYZ
    dof rx ry rz
    limits (-20.0 45.0)
           (-30.0 30.0)
           (-30.0 30.0)
  end
  begin
     id 17 
     name lclavicle
     direction 0.927314 0.333734 -0.169441  
     length 3.97584  
     axis 0 0 0   XYZ
    dof ry rz
    limits (-20.0 10.0)
           (0.0 20.0)
  end
  begin
     id 18 
     name lhumerus
     direction 1 -4.48965e-011 -3.25313e-028   
     length 4.76468   
     axis 180 -30 -90   XYZ
    dof rx ry rz
    limits (-60.0 90.0)
           (-90.0 90.0)
           (-90.0 90.0)
  end
  begin
     id 19
     name lradius
     direction 1 -4.48969e-011 -2.8465e-028   
     length 3.52712   
     axis -180 -30 -90   XYZ
    dof rx
    limits (-10.0 170.0)
  end
  begin
     id 20
     name lwrist
     direction 1 -4.4896e-011 -7.78665e-028   
     length 1.76356   
     axis 1.91374e-015 90 90   XYZ
    dof ry
    limits (-180.0 0.0)
 end
  begin
     id 21 
     name lhand
     direction 1 -4.48959e-011 -1.55733e-027   
     length 0.859564   
     axis 9.9371e-016 90 90   XYZ
    dof rx rz
    limits (-90.0 90.0)
           (-45.0 45.0)
  end
  begin
     id 22 
     name lfingers
     direction 1 -4.48965e-011 -3.11466e-027   
     length 0.693002   
     axis 1.98742e-015 90 90   XYZ
    dof rx
    limits (0.0 90.0)
  end
  begin
     id 23
     name lthumb
     direction 0.707107 -6.34948e-011 0.707107   
     length 0.995017   
     axis -90 45 2.85299e-015   XYZ
    dof rx rz
    limits (-45.0 45.0)
           (-45.0 45.0)
  end
  begin
     id 24 
     name rclavicle
     direction -0.899388 0.348209 -0.264294   
     length 3.68366  
     axis 0 0 0   XYZ 
    dof ry rz
    limits (-10.0 20.0)
           (-20.0 0.0)
  end
  begin
     id 25 
     name rhumerus
     direction -1 -4.48965e-011 -3.01536e-027  
     length 4.90577   
     axis 180 30 90   XYZ
    dof rx ry rz
    limits (-90.0 60.0)
           (-90.0 90.0)
           (-90.0 90.0)
  end
  begin
     id 26 
     name rradius
     direction -1 -4.48966e-011 3.93291e-027   
     length 3.42692   
     axis -180 30 90   XYZ
    dof rx
    limits (-10.0 170.0)
  end
  begin
     id 27 
     name rwrist
     direction -1 -4.48969e-011 -7.78665e-028   
     length 1.71346   
     axis 1.91374e-015 -90 -90   XYZ
    dof ry
    limits (-180.0 0.0)
  end
  begin
     id 28
     name rhand
     direction -1 -4.48967e-011 -1.55733e-027   
     length 0.740957   
     axis 9.9371e-016 -90 -90   XYZ
    dof rx rz
    limits (-90.0 90.0)
           (-45.0 45.0)
  end
  begin
     id 29
     name rfingers
     direction -1 -4.48949e-011 -3.11466e-027   
     length 0.597378   
     axis 1.98742e-015 -90 -90   XYZ
    dof rx
    limits (0.0 90.0)
  end
  begin
     id 30
     name rthumb
     direction -0.707107 -6.34931e-011 0.707107   
     length 0.857719   
     axis -90 -45 -2.85299e-015   XYZ
    dof rx rz
    limits (-45.0 45.0)
           (-45.0 45.0)
  end
:hierarchy
  begin
    root lhipjoint rhipjoint lowerback
    lhipjoint lfemur
    lfemur ltibia
    ltibia lfoot
    lfoot ltoes
    rhipjoint rfemur
    rfemur rtibia
    rtibia rfoot
    rfoot rtoes
    lowerback upperback
    upperback thorax
    thorax lowerneck lclavicle rclavicle
    lowerneck upperneck
    upperneck head
    lclavicle lhumerus
    lhumerus lradius
    lradius lwrist
    lwrist lhand lthumb
    lhand lfingers
    rclavicle rhumerus
    rhumerus rradius
    rradius rwrist
    rwrist rhand rthumb
    rhand rfingers
  end

#!OML:ASF E:\I on waltz\AllaLogoMonkeySwing\Project 1\Capture day 1\Session 1\Subject1.ASF
:FULLY-SPECIFIED
:DEGREES
126
root -0.250166 17.7956 -31.9662 5.01161 5.81513 2.58956
lowerback 8.83006 -0.466157 -4.19348
upperback 0.648027 -1.00378 0.648277
thorax -4.19685 -0.414311 3.15885
lowerneck -11.5329 -0.124122 -2.48495
upperneck 20.0891 0.42576 -0.376038
head 8.12066 -0.018072 0.335067
rclavicle -3.57812e-015 1.80894e-014
rhumerus -40.3865 -26.6074 -70.0713
rradius 30.1095
rwrist 1.24168
rhand -6.82838 -39.061
rfingers 7.12502
rthumb 19.0359 -68.1495
lclavicle -3.57812e-015 1.80894e-014
lhumerus -39.0585 22.5306 79.7619
lradius 37.1934
lwrist -1.53787
lhand -8.56307 -12.0522
lfingers 7.12502
lthumb 17.367 17.1919
rfemur -5.32044 -10.0392 8.73668
rtibia 28.4633
rfoot -23.0918 -10.8662
rtoes 12.0094
lfemur 0.220098 2.12802 -15.4
ltibia 11.8286
lfoot -18.1377 -0.45326
ltoes -32.9066
127
root -0.290724 17.781 -31.9069 5.34576 5.97505 3.04598
lowerback 8.94058 -0.471316 -4.54425
upperback 0.638079 -1.0563 0.526731
thorax -4.26093 -0.432976 3.2384
lowerneck -11.3664 -0.151352 -2.30081
upperneck 19.7396 0.35509 -0.441509
head 7.9747 -0.0401397 0.274805
rclavicle 1.3418e-014 -7.35503e-015
rhumerus -40.5047 -26.4961 -69.9876
rradius 30.2263
rwrist 1.06063
rhand -6.49096 -39.2347
rfingers 7.12502
rthumb 19.3603 -68.2909
lclavicle 1.3418e-014 -7.35503e-015
lhumerus -38.9286 22.1287 79.9186
lradius 37.1719
lwrist -1.40036
lhand -8.71924 -12.1163
lfingers 7.12502
lthumb 17.2167 17.141
rfemur -5.90242 -10.5381 8.35733
rtibia 29.4696
rfoot -23.3269 -10.732
rtoes 12.8176
lfemur 0.17808 2.43475 -15.658
ltibia 11.6934
lfoot -18.3068 -0.713398
ltoes -34.8561
128
root -0.336685 17.7654 -31.8422 5.72589 6.10637 3.50321
lowerback 8.97525 -0.497436 -4.87769
upperback 0.643252 -1.13201 0.39387
thorax -4.26475 -0.465255 3.29741
lowerneck -11.2423 -0.173034 -2.03448
upperneck 19.3455 0.29702 -0.603378
head 7.82224 -0.0596741 0.170747
rclavicle 1.31198e-014 -1.92821e-014
rhumerus -40.6591 -26.4509 -69.9663
rradius 30.3923
rwrist 1.13839
rhand -6.30794 -39.0318
rfingers 7.12502
rthumb 19.5363 -68.0702
lclavicle 1.31198e-014 -1.92821e-014
lhumerus -38.7815 21.8458 80.0135
lradius 37.1642
lwrist -1.41556
lhand -8.80446 -12.1731
lfingers 7.12502
lthumb 17.1347 17.0914
rfemur -6.46055 -10.9932 8.00374
rtibia 30.3817
rfoot -23.7936 -10.504
rtoes 13.9007
lfemur 0.0881278 2.6735 -15.9139
ltibia 11.5432
lfoot -18.51 -0.916113
ltoes -35.7936
129
root -0.388701 17.75 -31.7686 6.00443 6.20398 3.77851
lowerback 9.07283 -0.596181 -5.11182
upperback 0.675192 -1.29165 0.38496
thorax -4.26644 -0.540411 3.44121
lowerneck -11.3147 -0.0936628 -2.07068
upperneck 19.1552 0.412785 -0.606042
head 7.77148 -0.00609793 0.187299
rclavicle -1.41137e-014 -1.78906e-014
rhumerus -40.6411 -26.0343 -70.1153
rradius 30.5508
rwrist 1.13211
rhand -6.52574 -39.1248
rfingers 7.12502
rthumb 19.3269 -68.1843
lclavicle -1.41137e-014 -1.78906e-014
lhumerus -38.68 22.0562 80.0021
lradius 37.1109
lwrist -1.47805
lhand -8.75543 -12.1559
lfingers 7.12502
lthumb 17.1818 17.1045
rfemur -6.85874 -11.417 7.87225
rtibia 31.2567
rfoot -24.3102 -10.178
rtoes 14.5978
lfemur 0.110797 2.86867 -15.9352
ltibia 11.4477
lfoot -18.7849 -1.0786
ltoes -35.9393
130
root -0.444961 17.7345 -31.6879 6.17605 6.21631 3.68238
lowerback 9.23075 -0.692672 -4.9357
upperback 0.704167 -1.40622 0.460615
thorax -4.3156 -0.598805 3.43837
lowerneck -11.6206 -0.00507429 -2.36398
upperneck 19.321 0.557477 -0.381066
head 7.87916 0.0603268 0.325306
rclavicle 3.47873e-015 -1.66979e-014
rhumerus -40.104 -25.7174 -70.2519
rradius 30.0838
rwrist 1.27342
rhand -6.77812 -39.1619
rfingers 7.12502
rthumb 19.0842 -68.2456
lclavicle 3.47873e-015 -1.66979e-014
lhumerus -38.6997 22.1645 79.9327
lradius 37.068
lwrist -1.56554
lhand -8.86645 -12.2642
lfingers 7.12502
lthumb 17.075 17.0054
rfemur -7.19203 -11.7131 8.19953
rtibia 32.1296
rfoot -24.951 -9.79695
rtoes 14.8807
lfemur 0.240886 2.91146 -15.5258
ltibia 11.3627
lfoot -18.9247 -1.0537
ltoes -36.3007
131
root -0.50695 17.7188 -31.602 6.39011 6.0879 3.54592
lowerback 9.32486 -0.715601 -4.66384
upperback 0.694517 -1.41445 0.443913
thorax -4.38437 -0.606024 3.27104
lowerneck -11.4762 0.0362807 -1.62044
upperneck 19.0199 0.577845 -0.970008
head 7.75662 0.0703546 0.00897641
rclavicle -5.01931e-015 -1.59028e-015
rhumerus -39.3923 -25.8855 -70.2807
rradius 29.2308
rwrist 1.62738
rhand -6.72766 -38.9422
rfingers 7.12502
rthumb 19.1327 -68.0211
lclavicle -5.01931e-015 -1.59028e-015
lhumerus -38.8445 21.8809 79.7537
lradius 37.1675
lwrist -1.57985
lhand -8.82267 -12.4432
lfingers 7.12502
lthumb 17.1171 16.8228
rfemur -7.57115 -11.8661 8.60395
rtibia 32.8996
rfoot -25.4679 -9.49876
rtoes 14.5146
lfemur 0.357949 2.88789 -15.0955
ltibia 11.262
lfoot -19.0162 -0.807428
ltoes -36.8557
